<?xml version="1.0" encoding="UTF-8"?>
<svg width="40px" height="40px" viewBox="0 0 40 40" version="1.1" xmlns="http://www.w3.org/2000/svg" xmlns:xlink="http://www.w3.org/1999/xlink">
    <!-- Generator: Sketch 47.1 (45422) - http://www.bohemiancoding.com/sketch -->
    <title>phone</title>
    <desc>Created with Sketch.</desc>
    <defs>
        <polygon id="path-1" points="1.00022919 0.9999 40.998 0.9999 40.998 40.9989 20.9991146 40.9989 1.00022919 40.9989 1.00022919 0.9999"></polygon>
    </defs>
    <g id="Page-2" stroke="none" stroke-width="1" fill="none" fill-rule="evenodd">
        <g id="Artboard" transform="translate(-162.000000, -21.000000)">
            <g id="phone" transform="translate(161.000000, 20.000000)">
                <mask id="mask-2" fill="white">
                    <use xlink:href="#path-1"></use>
                </mask>
                <g id="Clip-2"></g>
                <path d="M12.0783,40.9989 C10.2173,40.9989 8.4013,40.3509 6.9803,39.1359 L3.3643,36.0439 C1.9383,34.8249 1.0783,33.0509 1.0053,31.1759 C0.9323,29.3019 1.6503,27.4659 2.9773,26.1389 L5.5843,23.5329 C6.9343,22.1829 8.8113,21.4679 10.7083,21.5639 C12.6153,21.6629 14.3983,22.5699 15.6013,24.0539 L15.9213,24.4469 C16.7433,25.4609 18.1963,25.6329 19.2323,24.8389 C21.3583,23.2099 23.2363,21.3309 24.8423,19.2329 C25.6343,18.1979 25.4613,16.7439 24.4483,15.9229 L24.0533,15.6019 C22.5703,14.3989 21.6633,12.6159 21.5633,10.7089 C21.4653,8.8019 22.1823,6.9349 23.5323,5.5839 L26.1393,2.9779 C27.4653,1.6509 29.3083,0.9309 31.1753,1.0049 C33.0503,1.0789 34.8243,1.9379 36.0443,3.3639 L39.1363,6.9799 C40.7683,8.8909 41.3783,11.5159 40.7643,14.0039 C40.5663,14.8089 39.7563,15.3009 38.9483,15.1009 C38.1433,14.9019 37.6533,14.0889 37.8513,13.2849 C38.2333,11.7349 37.8613,10.1059 36.8553,8.9299 L33.7643,5.3139 C33.0763,4.5099 32.1153,4.0439 31.0583,4.0029 C30.0153,3.9599 29.0083,4.3509 28.2603,5.0989 L25.6533,7.7059 C24.8923,8.4669 24.5043,9.4779 24.5593,10.5529 C24.6153,11.6279 25.1063,12.5939 25.9433,13.2719 L26.3393,13.5929 C28.6203,15.4429 29.0103,18.7219 27.2243,21.0559 C25.4583,23.3639 23.3923,25.4309 21.0853,27.1989 C18.7223,29.0109 15.4413,28.6209 13.5913,26.3369 L13.2713,25.9439 C12.5933,25.1069 11.6283,24.6159 10.5533,24.5599 C9.4703,24.5049 8.4663,24.8929 7.7053,25.6539 L5.0993,28.2599 C4.3503,29.0079 3.9623,30.0019 4.0033,31.0589 C4.0443,32.1159 4.5103,33.0769 5.3133,33.7639 L8.9303,36.8549 C10.1073,37.8619 11.7343,38.2329 13.2853,37.8519 C19.2133,36.3889 24.6403,33.3209 28.9803,28.9809 C31.8853,26.0769 34.2053,22.7219 35.8763,19.0089 C36.2163,18.2539 37.1043,17.9169 37.8603,18.2569 C38.6153,18.5969 38.9523,19.4849 38.6123,20.2409 C36.7913,24.2859 34.2643,27.9399 31.1013,31.1019 C26.3753,35.8289 20.4633,39.1699 14.0043,40.7639 C13.3663,40.9219 12.7203,40.9989 12.0783,40.9989" id="Fill-1" fill="#222222" mask="url(#mask-2)"></path>
            </g>
        </g>
    </g>
</svg>